<svg width="0" height="0" class="hidden">
  <symbol id="linkedin" xmlns="http://www.w3.org/2000/svg" viewBox="0 0 215 215">
    <defs></defs>
    <g id="LinkedIn">
      <path id="Background" d="M1385,657.2c0-48.65,0-73,15.11-88.09S1439.55,554,1488.2,554h8.6c48.65,0,73,0,88.09,15.11S1600,608.55,1600,657.2v8.6c0,48.65,0,73-15.11,88.09S1545.45,769,1496.8,769h-8.6c-48.65,0-73,0-88.09-15.11S1385,714.45,1385,665.8Z" transform="translate(-1385 -554)"></path>
      <g id="LinkedIn-2">
        <rect id="LinkedIn-3" x="57.82" y="83.44" width="22.81" height="73.58"></rect>
        <path id="LinkedIn-4" d="M1523.76,636c-8.83-.74-16.92,4.41-21.34,11.77v-10.3h-22.07V711h22.81V674.23c0-9.57,2.2-19.13,14-19.13s11.77,11,11.77,19.86V711h22.81l-.74-39.74C1551,651.42,1547.3,636,1523.76,636Z" transform="translate(-1385 -554)"></path>
        <circle id="LinkedIn-5" cx="68.86" cy="59.89" r="13.24"></circle>
      </g>
    </g>
  </symbol>
  <symbol id="mail" xmlns="http://www.w3.org/2000/svg" viewBox="0 0 215 215">
    <defs></defs>
    <g id="Mail.ru">
      <path id="Background" d="M554,380.2c0-48.65,0-73,15.11-88.09S608.55,277,657.2,277h8.6c48.65,0,73,0,88.09,15.11S769,331.55,769,380.2v8.6c0,48.65,0,73-15.11,88.09S714.45,492,665.8,492h-8.6c-48.65,0-73,0-88.09-15.11S554,437.45,554,388.8Z" transform="translate(-554 -277)"></path>
      <path id="Mail.ru-2" d="M725.33,384.6c0,21.73-10.17,31.9-23,31.9a20.71,20.71,0,0,1-17.57-9.71,31.72,31.72,0,1,1,9.09-22.19v10.32c0,5.24,3.7,8.94,8.48,8.94,5.7,0,10.33-4.77,10.33-19.26a50.82,50.82,0,1,0-23.43,42.54l8.32,9.55A62.64,62.64,0,0,1,662,447.63a63.19,63.19,0,1,1,63.34-63Zm-63.19,19.26a19.27,19.27,0,1,0-19.26-19.26A19.27,19.27,0,0,0,662.14,403.86Z" transform="translate(-554 -277)"></path>
    </g>
  </symbol>
  <symbol id="skype" xmlns="http://www.w3.org/2000/svg" viewBox="0 0 215 215">
    <defs></defs>
    <g id="Skype">
      <path id="Background" d="M831,380.2c0-48.65,0-73,15.11-88.09S885.55,277,934.2,277h8.6c48.65,0,73,0,88.09,15.11S1046,331.55,1046,380.2v8.6c0,48.65,0,73-15.11,88.09S991.45,492,942.8,492h-8.6c-48.65,0-73,0-88.09-15.11S831,437.45,831,388.8Z" transform="translate(-831 -277)"></path>
      <path id="skype-2" d="M956.65,375.23l-21.33-4.81c-8.11-1.87-17.26-4.51-17.26-12.27s6.23-13.33,18.07-13.33c23.83,0,21.86,16.65,33.7,16.65,6.22,0,11.58-3.48,11.58-9.87,0-14.92-23.7-25.92-43.63-25.92-21.66,0-44.38,9-44.38,33.85,0,12,4.07,24.88,27.27,30.77l28.82,7.31c8.72,2.18,11.29,7.18,11.29,11.68,0,7.47-7.75,15.44-21,15.44-25.86,0-22.25-20.8-36.12-20.8-6.22,0-11.09,4.28-11.09,10.49,0,12.12,14.8,28.62,47.21,28.62,30.83,0,46.47-15.59,46.47-35.79C986.26,394.21,980,380.51,956.65,375.23Z" transform="translate(-831 -277)"></path>
    </g>
  </symbol>
  <symbol id="vk" xmlns="http://www.w3.org/2000/svg" viewBox="0 0 215 215">
    <defs></defs>
    <g id="vk">
      <path id="Background" d="M0,103.2c0-48.65,0-73,15.11-88.09S54.55,0,103.2,0h8.6c48.65,0,73,0,88.09,15.11S215,54.55,215,103.2v8.6c0,48.65,0,73-15.11,88.09S160.45,215,111.8,215h-8.6c-48.65,0-73,0-88.09-15.11S0,160.45,0,111.8Z"></path>
      <path id="vk-2" d="M112,151c-45.86,0-72-31.44-73.1-83.75h23c.75,38.4,17.69,54.66,31.1,58v-58h21.63v33.12c13.24-1.43,27.16-16.52,31.85-33.12h21.63c-3.6,20.46-18.69,35.55-29.42,41.75,10.73,5,27.91,18.19,34.45,42H149.29C144.18,135,131.44,122.7,114.59,121V151Z"></path>
    </g>
  </symbol>
</svg>