<svg width="0" height="0" class="hidden">
  <symbol xmlns="http://www.w3.org/2000/svg" xmlns:xlink="http://www.w3.org/1999/xlink"  xml:space="preserve" viewBox="0 0 400 400" id="case">
    <desc>Created with Fabric.js 3.6.2</desc>
    <defs></defs>
    <g transform="matrix(12.5 0 0 12.5 200 200)">
      <path transform=" translate(-8, -7.5)" d="M 6.5 1 A 1.5 1.5 0 0 0 5 2.5 V 3 H 1.5 A 1.5 1.5 0 0 0 0 4.5 v 8 A 1.5 1.5 0 0 0 1.5 14 h 13 a 1.5 1.5 0 0 0 1.5 -1.5 v -8 A 1.5 1.5 0 0 0 14.5 3 H 11 v -0.5 A 1.5 1.5 0 0 0 9.5 1 h -3 z m 0 1 h 3 a 0.5 0.5 0 0 1 0.5 0.5 V 3 H 6 v -0.5 a 0.5 0.5 0 0 1 0.5 -0.5 z m 1.886 6.914 L 15 7.151 V 12.5 a 0.5 0.5 0 0 1 -0.5 0.5 h -13 a 0.5 0.5 0 0 1 -0.5 -0.5 V 7.15 l 6.614 1.764 a 1.5 1.5 0 0 0 0.772 0 z M 1.5 4 h 13 a 0.5 0.5 0 0 1 0.5 0.5 v 1.616 L 8.129 7.948 a 0.5 0.5 0 0 1 -0.258 0 L 1 6.116 V 4.5 a 0.5 0.5 0 0 1 0.5 -0.5 z" stroke-linecap="round"></path>
    </g>
  </symbol>
  <symbol xmlns="http://www.w3.org/2000/svg" xmlns:xlink="http://www.w3.org/1999/xlink"  xml:space="preserve" viewBox="0 0 400 400" id="pc">
    <desc>Created with Fabric.js 3.6.2</desc>
    <defs></defs>
    <g transform="matrix(3.85 0 0 3.85 263.38 215.38)" id="Layer_1">
      <polygon points="7.52,16 -7.52,16 -7.52,2.59 -5.52,2.59 -5.52,14 5.52,14 5.52,-14 -3.52,-14 -3.52,-16 7.52,-16 "></polygon>
    </g>
    <g transform="matrix(3.85 0 0 3.85 269.23 173.08)" id="Layer_1">
      <rect x="-2" y="-1" rx="0" ry="0" width="4" height="2"></rect>
    </g>
    <g transform="matrix(3.85 0 0 3.85 269.23 188.46)" id="Layer_1">
      <rect x="-2" y="-1" rx="0" ry="0" width="4" height="2"></rect>
    </g>
    <g transform="matrix(3.85 0 0 3.85 269.23 203.85)" id="Layer_1">
      <rect x="-2" y="-1" rx="0" ry="0" width="4" height="2"></rect>
    </g>
    <g transform="matrix(3.85 0 0 3.85 273.08 219.23)" id="Layer_1">
      <rect x="-1" y="-1" rx="0" ry="0" width="2" height="2"></rect>
    </g>
    <g transform="matrix(3.85 0 0 3.85 263.38 245.49)" id="Layer_1">
      <path transform=" translate(-42.48, -37.83)" d="M 42.4775391 41.4350586 c -1.9892578 0 -3.6083984 -1.6191406 -3.6083984 -3.6088867 s 1.6191406 -3.6083984 3.6083984 -3.6083984 c 1.9902344 0 3.609375 1.6186523 3.609375 3.6083984 S 44.4677734 41.4350586 42.4775391 41.4350586 z M 42.4775391 36.2177734 c -0.8867188 0 -1.6083984 0.7216797 -1.6083984 1.6083984 c 0 0.887207 0.7216797 1.6088867 1.6083984 1.6088867 c 0.8876953 0 1.609375 -0.7216797 1.609375 -1.6088867 C 44.0869141 36.9394531 43.3652344 36.2177734 42.4775391 36.2177734 z" stroke-linecap="round"></path>
    </g>
    <g transform="matrix(3.85 0 0 3.85 180.77 176.09)" id="Layer_1">
      <path transform=" translate(-21, -19.78)" d="M 40 33.5654297 H 2 V 6 h 38 V 33.5654297 z M 4 31.5654297 h 34 V 8 H 4 V 31.5654297 z" stroke-linecap="round"></path>
    </g>
    <g transform="matrix(3.85 0 0 3.85 180.77 239.3)" id="Layer_1">
      <path transform=" translate(-21, -36.22)" d="M 30.3759766 40.8696289 H 11.6230469 l 2.2939453 -9.3041992 h 14.1660156 L 30.3759766 40.8696289 z M 14.1757813 38.8696289 h 13.6474609 l -1.3066406 -5.3041992 H 15.4833984 L 14.1757813 38.8696289 z" stroke-linecap="round"></path>
    </g>
    <g transform="matrix(3.85 0 0 3.85 180.77 253.34)" id="Layer_1">
      <rect x="-10.7998047" y="-1" rx="0" ry="0" width="21.5996094" height="2"></rect>
    </g>
  </symbol>
  <symbol xmlns="http://www.w3.org/2000/svg" xmlns:xlink="http://www.w3.org/1999/xlink"  xml:space="preserve" viewBox="0 0 400 400" id="pc2">
    <desc>Created with Fabric.js 3.6.2</desc>
    <defs></defs>
    <g transform="matrix(1.56 0 0 1.56 200 200)" id="Layer_1">
      <path transform=" translate(-64, -64)" d="M 104 0 H 24 C 10.746 0 0 10.742 0 24 v 48 c 0 13.258 10.746 24 24 24 h 24 c 0 4.414 -3.59 8 -8 8 h -4 c -6.629 0 -12 5.375 -12 12 s 5.371 12 12 12 h 56 c 6.629 0 12 -5.375 12 -12 s -5.371 -12 -12 -12 h -4 c -4.41 0 -8 -3.586 -8 -8 h 24 c 13.254 0 24 -10.742 24 -24 V 24 C 128 10.742 117.254 0 104 0 z M 88 112 h 4 c 2.207 0 4 1.797 4 4 s -1.793 4 -4 4 H 36 c -2.207 0 -4 -1.797 -4 -4 s 1.793 -4 4 -4 h 4 c 8.836 0 16 -7.164 16 -16 h 16 C 72 104.836 79.164 112 88 112 z M 120 72 c 0 8.82 -7.176 16 -16 16 H 24 c -8.824 0 -16 -7.18 -16 -16 V 24 c 0 -8.82 7.176 -16 16 -16 h 80 c 8.824 0 16 7.18 16 16 V 72 z" stroke-linecap="round"></path>
    </g>
    <g transform="matrix(1.56 0 0 1.56 200 175)" id="Layer_1">
      <path transform=" translate(-64, -48)" d="M 104 24 v 48 H 24 V 24 H 104 M 104 16 H 24 c -4.418 0 -8 3.578 -8 8 v 48 c 0 4.422 3.582 8 8 8 h 80 c 4.418 0 8 -3.578 8 -8 V 24 C 112 19.578 108.418 16 104 16 L 104 16 z" stroke-linecap="round"></path>
    </g>
  </symbol>
  <symbol xmlns="http://www.w3.org/2000/svg" xmlns:xlink="http://www.w3.org/1999/xlink"  xml:space="preserve" viewBox="0 0 400 400" id="play">
    <desc>Created with Fabric.js 3.6.2</desc>
    <defs></defs>
    <g transform="matrix(3.85 0 0 3.85 200 241.07)" id="Layer_1">
      <path transform=" translate(-26, -36.68)" d="M 12.0962381 49.9233398 c -0.3056641 0 -0.6123047 -0.015625 -0.9179688 -0.0463867 C 8.67241 49.6225586 6.375535 48.3129883 4.7114725 46.1904297 c -2.1835938 -2.7866211 -3.1132813 -6.6762695 -2.5507813 -10.6723633 c 0.9853516 -7.0014648 6.2675781 -12.0834961 12.5605469 -12.0834961 c 0.7246094 0 1.2880869 0.5092773 1.8857431 1.0488281 c 0.46875 0.4238281 1.0517578 0.9511719 1.4609375 0.9511719 h 15.8583965 c 0.4150391 0 1.0019531 -0.5297852 1.4736328 -0.9550781 c 0.5947266 -0.5375977 1.1572266 -1.0449219 1.8789063 -1.0449219 c 6.2919922 0 11.5742188 5.0820313 12.5605469 12.0834961 v 0.0004883 c 0.5625 3.9960938 -0.3681641 7.8867188 -2.5517578 10.6728516 c -1.6640625 2.1220703 -3.9599609 3.4311523 -6.4658203 3.6855469 c -3.8974609 0.3935547 -7.8134766 -1.7680664 -10.3124981 -5.6772461 h -9.0195313 C 19.1870594 47.8022461 15.6890116 49.9233398 12.0962381 49.9233398 z M 14.625535 25.4350586 C 9.3823709 25.4873047 4.9810038 29.8291016 4.14116 35.796875 c -0.4873047 3.4604492 0.2939453 6.7988281 2.1445313 9.159668 c 1.3447266 1.715332 3.1064453 2.7285156 5.09375 2.9301758 c 3.2773438 0.3334961 6.6103525 -1.6572266 8.6884775 -5.1933594 l 0.2900391 -0.4936523 H 31.641161 L 31.9312 42.6933594 c 2.0781231 3.5366211 5.4121075 5.534668 8.6894512 5.1933594 c 1.9873047 -0.2016602 3.7480469 -1.2143555 5.0927734 -2.9291992 c 1.8505859 -2.3608398 2.6328125 -5.699707 2.1455078 -9.1606445 c -0.8408203 -5.9677734 -5.2412109 -10.309082 -10.4833984 -10.3618164 c -0.1474609 0.0883789 -0.4375 0.3500977 -0.6357422 0.5288086 c -0.6875 0.6206055 -1.6289063 1.4707031 -2.8134766 1.4707031 H 18.0679188 c -1.1787109 0 -2.0791025 -0.8134766 -2.8027353 -1.4672852 C 15.0659647 25.7871094 14.7739725 25.5234375 14.625535 25.4350586 z M 14.5845194 25.4135742 L 14.5845194 25.4135742 L 14.5845194 25.4135742 z" stroke-linecap="round"></path>
    </g>
    <g transform="matrix(3.85 0 0 3.85 242.31 219.88)" id="Layer_1">
      <rect x="-1" y="-1.50268555" rx="0" ry="0" width="2" height="3.0053711"></rect>
    </g>
    <g transform="matrix(3.85 0 0 3.85 242.31 262.26)" id="Layer_1">
      <rect x="-1" y="-1.50268555" rx="0" ry="0" width="2" height="3.0053711"></rect>
    </g>
    <g transform="matrix(3.85 0 0 3.85 263.46 241.07)" id="Layer_1">
      <rect x="-1.5" y="-1" rx="0" ry="0" width="3" height="2"></rect>
    </g>
    <g transform="matrix(3.85 0 0 3.85 221.15 241.07)" id="Layer_1">
      <rect x="-1.5" y="-1" rx="0" ry="0" width="3" height="2"></rect>
    </g>
    <g transform="matrix(3.85 0 0 3.85 153.84 241.07)" id="Layer_1">
      <rect x="-1" y="-5.0085449" rx="0" ry="0" width="2" height="10.0170898"></rect>
    </g>
    <g transform="matrix(3.85 0 0 3.85 153.84 241.07)" id="Layer_1">
      <rect x="-5" y="-1" rx="0" ry="0" width="10" height="2"></rect>
    </g>
    <g transform="matrix(3.85 0 0 3.85 189.6 155.73)" id="Layer_1">
      <path transform=" translate(-23.3, -14.49)" d="M 26.8823719 26.9047852 l -1.765625 -0.9404297 c 2.0429688 -3.8344727 0.8896484 -8.5917969 -2.6806641 -11.065918 l -0.1572266 -0.1083984 c -2.0976563 -1.4541016 -3.0097656 -4.1625977 -2.2167969 -6.5878906 c 0.5488281 -1.6826172 -0.1083984 -3.4990234 -1.5947266 -4.4321289 l 1.0644531 -1.6933594 c 2.2636719 1.421875 3.265625 4.1899414 2.4355469 6.730957 c -0.5244141 1.6069336 0.0732422 3.3842773 1.4492188 4.3378906 l 0.1572266 0.1083984 C 27.9800282 16.3066406 29.4019032 22.1748047 26.8823719 26.9047852 z" stroke-linecap="round"></path>
    </g>
  </symbol>
  <symbol xmlns="http://www.w3.org/2000/svg" xmlns:xlink="http://www.w3.org/1999/xlink"  xml:space="preserve" viewBox="0 0 400 400" id="pencil">
    <desc>Created with Fabric.js 3.6.2</desc>
    <defs></defs>
    <g transform="matrix(4.35 0 0 4.35 200 200)" id="Layer_1">
      <path transform=" translate(-24.03, -23.99)" d="M 44.929 14.391 c -0.046 0.099 -0.102 0.194 -0.183 0.276 L 16.84 42.572 c -0.109 0.188 -0.26 0.352 -0.475 0.434 l -13.852 3.88 c -0.029 0.014 -0.062 0.016 -0.094 0.026 l -0.047 0.014 c -0.008 0.003 -0.017 0.001 -0.024 0.004 c -0.094 0.025 -0.187 0.046 -0.286 0.045 c -0.098 0.003 -0.189 -0.015 -0.282 -0.041 c -0.021 -0.006 -0.04 -0.002 -0.061 -0.009 c -0.008 -0.003 -0.013 -0.01 -0.021 -0.013 c -0.088 -0.033 -0.164 -0.083 -0.24 -0.141 c -0.039 -0.028 -0.08 -0.053 -0.113 -0.086 s -0.058 -0.074 -0.086 -0.113 c -0.058 -0.075 -0.107 -0.152 -0.141 -0.24 c -0.004 -0.008 -0.01 -0.013 -0.013 -0.021 c -0.007 -0.02 -0.003 -0.04 -0.009 -0.061 c -0.025 -0.092 -0.043 -0.184 -0.041 -0.281 c 0 -0.1 0.02 -0.193 0.045 -0.287 c 0.004 -0.008 0.001 -0.016 0.004 -0.023 l 0.014 -0.049 c 0.011 -0.03 0.013 -0.063 0.026 -0.093 l 3.88 -13.852 c 0.082 -0.216 0.246 -0.364 0.434 -0.475 l 27.479 -27.48 c 0.04 -0.045 0.087 -0.083 0.128 -0.127 l 0.299 -0.299 c 0.015 -0.015 0.034 -0.02 0.05 -0.034 C 34.858 1.87 36.796 1 38.953 1 C 43.397 1 47 4.603 47 9.047 C 47 11.108 46.205 12.969 44.929 14.391 z M 41.15 15.5 l -3.619 -3.619 L 13.891 35.522 c 0.004 0.008 0.014 0.011 0.018 0.019 l 2.373 4.827 L 41.15 15.5 z M 3.559 44.473 l 2.785 -0.779 l -2.006 -2.005 L 3.559 44.473 z M 4.943 39.53 l 3.558 3.559 l 6.12 -1.715 c 0 0 -2.586 -5.372 -2.59 -5.374 l -5.374 -2.59 L 4.943 39.53 z M 12.49 34.124 c 0.008 0.004 0.011 0.013 0.019 0.018 L 36.15 10.5 l -3.619 -3.619 L 7.663 31.749 L 12.49 34.124 z M 38.922 3 c -1.782 0 -3.372 0.776 -4.489 1.994 l -0.007 -0.007 L 33.912 5.5 l 8.619 8.619 l 0.527 -0.528 l -0.006 -0.006 c 1.209 -1.116 1.979 -2.701 1.979 -4.476 C 45.031 5.735 42.296 3 38.922 3 z" stroke-linecap="round"></path>
    </g>
  </symbol>
  <symbol xmlns="http://www.w3.org/2000/svg" xmlns:xlink="http://www.w3.org/1999/xlink"  xml:space="preserve" viewBox="0 0 400 400" id="tool">
    <desc>Created with Fabric.js 3.6.2</desc>
    <defs></defs>
    <g transform="matrix(0.39 0 0 0.39 148.83 161.14)" id="Layer_1">
      <path transform=" translate(-124.99, -156.51)" d="M 110.6 206.2 c 1.3 0.1 2.6 0.4 3.8 1 c 1.8 1 4 0.7 5.5 -0.8 l 49.1 -49.1 c 2.2 -2.2 2.2 -5.8 0 -8 c -2.7 -2.7 -2.7 -7.1 0 -9.8 l 13.4 -13.4 c 2.7 -2.7 7.1 -2.7 9.8 0 l 4 4 l 32 -32 c 7.7 -7.7 7.7 -20.1 0 -27.7 l -42.6 -42.6 c -7.7 -7.7 -20.1 -7.7 -27.7 0 l -32 32 l 3.3 3.3 c 3.5 3.5 3.5 9.3 0 12.8 l -10.3 10.3 c -3.5 3.5 -9.3 3.5 -12.8 0 c -1.8 -1.8 -4.7 -1.8 -6.5 0 l -49.8 49.8 c -1.8 1.8 -1.8 4.8 0 6.6 c 1.8 1.8 2.1 4.7 0.6 6.9 C -13.9 244.5 31.7 291 31.7 291 c 5.7 -41.6 40.8 -80.2 75.2 -84.8 C 108 206.1 109.4 206.1 110.6 206.2 z" stroke-linecap="round"></path>
    </g>
    <g transform="matrix(0.39 0 0 0.39 216.07 229.7)" id="Layer_1">
      <path transform=" translate(-297.13, -332.03)" d="M 444.1 412.7 L 186.2 174.3 l -46.8 46.8 l 238.3 257.9 c 13.1 14 35.2 14.4 48.8 0.8 l 18.4 -18.4 C 458.5 447.9 458.1 425.8 444.1 412.7 z" stroke-linecap="round"></path>
    </g>
    <g transform="matrix(0.39 0 0 0.39 167.34 258.75)" id="Layer_1">
      <path transform=" translate(-172.39, -406.41)" d="M 100.6 427.5 c -14.3 14.3 -14.3 37.4 0 51.7 l 0 0 c 14.3 14.3 37.4 14.3 51.7 0 l 102.6 -102.6 l -49.7 -53.7 L 100.6 427.5 z" stroke-linecap="round"></path>
    </g>
    <g transform="matrix(0.39 0 0 0.39 253.1 172.99)" id="Layer_1">
      <path transform=" translate(-391.95, -186.86)" d="M 493.4 151.4 l -55.9 55.9 c -4.3 4.3 -10.8 5.7 -16.5 3.6 l -31.3 -11.7 c -4.2 -1.6 -7.6 -4.9 -9.1 -9.1 l -11.7 -31.3 c -2.1 -5.7 -0.7 -12.2 3.6 -16.5 l 55.9 -55.9 c -29.4 -7.2 -61.7 0.7 -84.5 23.8 c -25.1 25.4 -31.7 62.4 -19.9 93.9 l -36.1 36.1 l 53.7 49.7 l 34 -34 c 31.7 12 68.9 5.2 94.4 -20.3 C 492.8 212.7 500.6 180.6 493.4 151.4 z" stroke-linecap="round"></path>
    </g>
  </symbol>
  <symbol xmlns="http://www.w3.org/2000/svg" xmlns:xlink="http://www.w3.org/1999/xlink"  xml:space="preserve" viewBox="0 0 400 400" id="voice">
    <desc>Created with Fabric.js 3.6.2</desc>
    <defs></defs>
    <g transform="matrix(0.39 0 0 0.39 200 236.56)" id="Layer_1">
      <path transform=" translate(-256, -349.6)" d="M 112.1 238.1 l -0.1 13.6 c 0.1 65.6 46 120.6 108.1 136.2 c 1.3 0.1 2.6 0.5 3.8 0.9 c 5.9 2 10.1 6.9 12.1 12.8 v 58.7 c 0 10.9 8.9 19.7 20 19.7 h 0.1 c 11.1 0 19.9 -8.8 19.9 -19.7 v -58.8 c 2 -5.9 6.1 -10.7 12 -12.7 c 1.2 -0.4 2.5 -0.8 3.9 -0.9 C 354 372.3 400 317.3 400 251.7 v -13.6 c 0 -10.4 -8.9 -18.9 -19.5 -18.9 c -10.6 0 -19.5 8.4 -19.5 18.9 v 13.6 c 0 28.5 -11.5 54.1 -30.6 72.8 c -19.2 18.6 -45.3 30.2 -74.5 30.2 c -29.2 0 -55.1 -11.5 -74.2 -30.2 c -19.1 -18.7 -30.7 -44.4 -30.7 -72.8 v -13.6 c 0 -10.4 -8.8 -18.9 -19.5 -18.9 C 120.9 219.2 112.1 227.7 112.1 238.1 z" stroke-linecap="round"></path>
    </g>
    <g transform="matrix(0.39 0 0 0.39 200.2 170.16)" id="Layer_1">
      <path transform=" translate(-256.5, -179.6)" d="M 179 107.7 v 143.8 c 0 41.8 34.7 75.7 77.5 75.7 c 42.8 0 77.5 -33.9 77.5 -75.7 V 107.7 c 0 -41.8 -34.7 -75.7 -77.5 -75.7 C 213.7 32 179 65.9 179 107.7 z" stroke-linecap="round"></path>
    </g>
  </symbol>
</svg>